# xmcd
#
# Track frame offsets: 
#        150
#        26905
#        42178
#        57992
#        70481
#        93296
#        108058
#        130584
#        152239
#        168769
#        197194
#        209148
#        223573
#        235882
#        251324
#        267952
#        280711
#        300429
#        319253
#        337041
#
# Disc length: 4782 seconds
#
# Revision: 3
# Processed by: cddbd v1.5.2PL0 Copyright (c) Steve Scherf et al.
# Submitted via: ExactAudioCopy v1.3
#
DISCID=2212ac14
DTITLE=Various Artist - Akella Presents - Country Blues - vol.29  CD1
DTITLE=New!
DYEAR=2013
DGENRE=Blues
TTITLE0=BRIAN KRAMER - What She Would Say
TTITLE1=TISHAMINGO - Devil's Love Song
TTITLE2=HANS THESSINK - Let Go
TTITLE3=GORDON HASKELL - Freeway To Her Dreams
TTITLE4=TONY JOE WHITE - I Want My Fleetwood Back
TTITLE5=WALTER TROUT - Hudson Had Help
TTITLE6=DELTA MOON - Stuck In Carolina
TTITLE7=MARK KNOPFLER - Behind With The Rent
TTITLE8=JOHN OATES BAND - Dance Hall Girls
TTITLE9=HANK SHIZZOE - Six Blade Knife
TTITLE10=J.J. CALE - Waymore's Blues
TTITLE11=PONTY BONE - Louisianna Lisa
TTITLE12=MATT WOODS - When The Good Times Are Gone
TTITLE13=BIG HOUSE - Somebody to Love
TTITLE14=BO RAMSEY - Same For You
TTITLE15=INNES SIBUN - Southbound Train
TTITLE16=ROB ORLEMANS - Your Rainy Day
TTITLE17=JOHN FOGERTY - Don't You Wish It Was True
TTITLE18=CHRIS ISAAK - Dancin'
TTITLE19=MILLER ANDERSON - Rich Man, Poor Man
EXTD=
EXTT0=
EXTT1=
EXTT2=
EXTT3=
EXTT4=
EXTT5=
EXTT6=
EXTT7=
EXTT8=
EXTT9=
EXTT10=
EXTT11=
EXTT12=
EXTT13=
EXTT14=
EXTT15=
EXTT16=
EXTT17=
EXTT18=
EXTT19=
PLAYORDER=
